<?xml version="1.0" standalone="no"?>
<!DOCTYPE svg PUBLIC "-//W3C//DTD SVG 20010904//EN"
 "http://www.w3.org/TR/2001/REC-SVG-20010904/DTD/svg10.dtd">
<svg version="1.0" xmlns="http://www.w3.org/2000/svg"
 width="3334.000000pt" height="3334.000000pt" viewBox="0 0 3334.000000 3334.000000"
 preserveAspectRatio="xMidYMid meet">

<g transform="translate(0.000000,3334.000000) scale(0.100000,-0.100000)"
fill="#000000" stroke="none">
<path d="M12720 33324 c-30 -2 -140 -8 -245 -14 -1963 -109 -3939 -685 -5685
-1658 -1816 -1011 -3411 -2490 -4577 -4242 -1860 -2797 -2584 -6212 -2027
-9555 274 -1641 853 -3213 1713 -4645 751 -1249 1726 -2386 2866 -3340 2113
-1767 4716 -2822 7485 -3035 534 -41 1386 -46 1885 -10 2158 151 4160 775
5968 1860 l241 146 4416 -4416 4415 -4415 2078 2077 2077 2078 -4416 4416
-4417 4417 20 28 c11 16 65 103 120 194 1051 1740 1693 3737 1857 5780 42 516
55 1323 28 1770 -130 2167 -703 4110 -1748 5931 -845 1472 -2005 2803 -3364
3861 -1540 1198 -3340 2043 -5255 2467 -660 146 -1301 237 -2060 292 -140 10
-1254 21 -1375 13z m875 -4734 c1482 -63 2853 -472 4092 -1221 925 -560 1753
-1310 2411 -2184 904 -1202 1472 -2631 1647 -4140 64 -560 72 -1208 20 -1770
-156 -1676 -796 -3258 -1845 -4560 -1420 -1761 -3463 -2882 -5705 -3130 -235
-26 -348 -34 -657 -46 -686 -28 -1451 42 -2143 196 -847 189 -1649 498 -2392
924 -1461 836 -2671 2124 -3409 3628 -505 1032 -795 2133 -864 3290 -13 221
-13 755 0 976 108 1802 759 3490 1883 4880 351 434 825 908 1264 1264 1421
1153 3178 1815 5022 1893 269 11 414 11 676 0z"/>
</g>
</svg>
